Coordinates
version=1
nRows=17
nColumns=33
inDegrees=yes

Units are S.I. units (second, meters, Newtons, ...)
Angles are in degrees.

endheader
time	ground_thorax_rot_x	ground_thorax_rot_y	ground_thorax_rot_z	ground_thorax_tx	ground_thorax_ty	ground_thorax_tz	clav_prot_r	clav_elev_r	scapula_abduction_r	scapula_elevation_r	scapula_upward_rot_r	scapula_winging_r	shoulder_elv_r	plane_of_elev_r	axial_rot_r	elbow_flexion_r	pro_sup_r	wrist_flex_r	wrist_dev_r	clav_prot_l	clav_elev_l	scapula_abduction_l	scapula_elevation_l	scapula_upward_rot_l	scapula_winging_l	shoulder_elv_l	plane_of_elev_l	axial_rot_l	elbow_flexion_l	pro_sup_l	wrist_flex_l	wrist_dev_l
      7.16000000	     38.14842216	     -0.88655436	      3.17688230	   -140.74792263	    896.70453560	     -4.84926826	     -5.17361182	     39.14021766	     45.00000000	     45.00000000	     45.00000000	   2043.77451178	  -2451.31538058	     19.53829906	   -179.99999979	   1086.72267038	    -69.71610082	     21.36698584	     12.71070305	     10.52120552	    -45.00000000	    -45.00000000	     45.00000000	    -19.95335547	  -1344.31995635	  -1171.38683437	    141.04978923	    152.74652501	      9.68736296	    376.29803390	     11.48590914	    -22.51663838
      7.17000000	     37.98507791	     -0.75455371	      3.35355570	   -136.54003289	    894.45316086	     -4.37473800	     -5.03834933	     39.18023247	     45.00000000	     45.00000000	     45.00000000	   2043.92900271	  -2451.70029853	     19.39775733	   -179.99999979	   1086.67606180	    -71.69840933	     21.25813381	     12.85467882	     10.38832429	    -45.00000000	    -45.00000000	     45.00000000	    -19.49929850	  -1344.72807708	  -1171.65399839	    141.08031363	    152.82480167	      9.44375489	    373.73867398	     11.94032324	    -22.25842560
      7.18000000	     37.83332164	     -0.74917158	      3.31267633	   -132.27089139	    891.89770542	     -3.85658079	     -5.49946581	     39.13312029	     45.00000000	     45.00000000	     45.00000000	   2043.85192300	  -2452.23860182	     19.48496040	   -179.99999979	   1086.68465328	    -73.90554892	     21.14038719	     13.01310766	     10.06228365	    -45.00000000	    -45.00000000	     45.00000000	    -18.86033693	  -1345.04970450	  -1171.95704522	    140.90234602	    152.87733651	      9.19608455	    371.37771842	     12.43631759	    -21.92516989
      7.19000000	     37.66169372	     -0.60992050	      3.48968987	   -127.95881809	    889.04378304	     -3.29845853	     -5.52090360	     39.17575210	     45.00000000	     45.00000000	     45.00000000	   2043.83666548	  -2452.71372355	     19.38382211	   -179.99999979	   1086.70368600	    -76.28964681	     20.94446598	     13.19693345	      9.89627729	    -45.00000000	    -45.00000000	     45.00000000	    -18.44305161	  -1345.52156057	  -1172.29677215	    140.99712236	    152.87261362	      9.00677316	    369.43025307	     12.77045970	    -21.61139446
      7.20000000	     37.50076446	     -0.40009646	      3.70725459	   -123.60482256	    885.89085491	     -2.70186066	     -5.25412381	     39.30260728	     45.00000000	     45.00000000	     45.00000000	   2043.81465225	  -2453.13742251	     19.26260962	   -179.99999979	   1086.72428853	    -78.55602339	     20.74264554	     13.35846155	      9.86883618	    -45.00000000	    -45.00000000	     45.00000000	    -18.36761164	  -1346.10190142	  -1172.57459424	    141.10886190	    153.05987222	      8.89615464	    367.93922216	     13.06342667	    -21.33922127
      7.21000000	     37.35773973	     -0.33758740	      3.73859657	   -119.20945144	    882.44287386	     -2.06740387	     -5.70784081	     39.24837837	     45.00000000	     45.00000000	     45.00000000	   2043.65771796	  -2453.71775285	     19.23744798	   -179.99999979	   1086.82983809	    -81.04604574	     20.50418186	     13.53681873	      9.59661405	    -45.00000000	    -45.00000000	     45.00000000	    -17.90268132	  -1346.49243806	  -1173.06899935	    140.98591873	    153.33572186	      8.67025058	    366.57429264	     13.38204247	    -20.98738495
      7.22000000	     37.22145511	     -0.11171617	      3.91424629	   -114.77916693	    878.71449291	     -1.39641338	     -5.36271452	     39.42612334	     45.00000000	     45.00000000	     45.00000000	   2043.63075439	  -2454.16657311	     19.02437275	   -179.99999979	   1086.91852167	    -83.43069114	     20.24517444	     13.69949138	      9.62607224	    -45.00000000	    -45.00000000	     45.00000000	    -18.15519029	  -1347.16387951	  -1173.32794921	    141.03094069	    153.57354325	      8.64194387	    365.55097383	     13.60204091	    -20.71661050
      7.23000000	     37.13338045	     -0.07067197	      3.92500016	   -110.30913370	    874.72097391	     -0.69059758	     -5.93995539	     39.31027670	     45.00000000	     45.00000000	     45.00000000	   2043.38639935	  -2454.82731097	     19.06336469	   -179.99999979	   1087.10428790	    -85.95827807	     19.91476710	     13.86730673	      9.34514727	    -45.00000000	    -45.00000000	     45.00000000	    -17.71679820	  -1347.57792162	  -1173.96789843	    140.90574338	    153.98988982	      8.33662487	    364.68786106	     13.85765575	    -20.33947111
      7.24000000	     37.03562289	      0.14666451	      4.10129767	   -105.80201425	    870.49019579	      0.04528197	     -5.93623956	     39.35110405	     45.00000000	     45.00000000	     45.00000000	   2043.20897966	  -2455.35750138	     18.91427979	   -179.99999979	   1087.26184200	    -88.31121391	     19.55518325	     14.00705812	      9.35427991	    -45.00000000	    -45.00000000	     45.00000000	    -17.87931243	  -1348.21852787	  -1174.43722488	    140.90248777	    154.54903594	      8.15885987	    364.06376345	     14.01278371	    -20.02157561
      7.25000000	     36.92834683	      0.36292911	      4.26445729	   -101.25975194	    866.05704088	      0.80456410	     -5.94736959	     39.47885677	     45.00000000	     45.00000000	     45.00000000	   2042.98856221	  -2455.94148337	     18.64786878	   -179.99999979	   1087.28820139	    -90.48356247	     19.26603020	     14.05981066	      9.24481006	    -45.00000000	    -45.00000000	     45.00000000	    -18.07467865	  -1348.84616687	  -1174.83215035	    140.87134102	    154.93036851	      8.04627036	    363.72490265	     14.15113623	    -19.73751443
      7.26000000	     36.89430764	      0.39748167	      4.22030198	    -96.68741923	    861.46226873	      1.57965176	     -6.35238574	     39.45678718	     45.00000000	     45.00000000	     45.00000000	   2042.73114341	  -2456.64116889	     18.59166138	   -179.99999979	   1087.50118350	    -92.53835055	     18.94934823	     14.13507756	      9.06345906	    -45.00000000	    -45.00000000	     45.00000000	    -17.97947241	  -1349.39358059	  -1175.41730452	    140.70798552	    155.48964851	      7.85024379	    363.64976932	     14.30497284	    -19.44215397
      7.27000000	     36.84515933	      0.60228322	      4.39327994	    -92.09998657	    856.75741685	      2.36222625	     -6.43358831	     39.49039450	     45.00000000	     45.00000000	     45.00000000	   2042.50672007	  -2457.25847076	     18.37048012	   -179.99999979	   1087.60779553	    -94.16975524	     18.61606613	     14.13104887	      9.01269480	    -45.00000000	    -45.00000000	     45.00000000	    -18.22859301	  -1350.09941506	  -1175.90952271	    140.69620787	    156.05652452	      7.68565612	    363.94601011	     14.31704798	    -19.21871913
      7.28000000	     36.82195701	      0.79655387	      4.45581244	    -87.52179909	    852.00195350	      3.14431733	     -6.57533013	     39.53911500	     45.00000000	     45.00000000	     45.00000000	   2042.21558904	  -2457.85486561	     18.13526288	   -179.99999979	   1087.67757543	    -95.16094942	     18.36060373	     14.05665983	      8.96041645	    -45.00000000	    -45.00000000	     45.00000000	    -18.44219180	  -1350.75526062	  -1176.40469094	    140.53839894	    156.64201712	      7.52600297	    364.54807400	     14.27559581	    -19.04083749
      7.29000000	     36.82642992	      1.29346591	      4.90770970	    -82.97969371	    847.25173808	      3.92037337	     -5.86784696	     40.04888749	     45.00000000	     45.00000000	     45.00000000	   2042.23901181	  -2458.09721981	     17.58854068	   -179.99999979	   1087.74634304	    -95.54160437	     18.16566382	     13.92979390	      9.23992478	    -45.00000000	    -45.00000000	     45.00000000	    -19.99654516	  -1351.57601980	  -1176.46038517	    140.35177161	    156.89066730	      7.61089199	    365.32925866	     14.09389583	    -18.98131571
      7.30000000	     36.81227864	      1.27064587	      4.78245369	    -78.51263470	    842.56715486	      4.68401168	     -6.52270731	     39.70215787	     45.00000000	     45.00000000	     45.00000000	   2041.70658208	  -2458.99364425	     17.55714242	   -179.99999979	   1087.70137131	    -95.40924994	     17.92852927	     13.71981349	      8.98283862	    -45.00000000	    -45.00000000	     45.00000000	    -19.40242150	  -1352.25080655	  -1177.17842661	    140.38543729	    157.91224276	      7.35234226	    366.50415742	     14.02484732	    -18.85252181
      7.31000000	     36.88020237	      1.33888671	      4.71308537	    -74.16456724	    838.00436156	      5.42882421	     -7.00791754	     39.79058803	     45.00000000	     45.00000000	     45.00000000	   2041.31010532	  -2459.71106061	     17.46292336	   -179.99999979	   1087.59830859	    -94.60523734	     17.89102620	     13.44933517	      8.71816421	    -45.00000000	    -45.00000000	     45.00000000	    -19.23259436	  -1352.87584481	  -1177.76113453	    140.24004241	    158.36002211	      7.12989365	    368.27477010	     13.75800069	    -18.81253441
      7.32000000	     36.88646274	      1.45723953	      4.76320525	    -69.98257865	    833.61304575	      6.14690097	     -7.23227778	     39.71970762	     45.00000000	     44.81182214	     45.00000000	   2041.14039299	  -2460.25410397	     17.31337726	   -179.99999979	   1087.53408425	    -93.16321673	     17.83144742	     13.14167836	      8.57190245	    -45.00000000	    -45.00000000	     45.00000000	    -19.37012289	  -1353.51075255	  -1178.15447698	    140.13674007	    158.82395331	      7.06026324	    370.37709321	     13.41536533	    -18.85347630
